<svg width="858" height="693" viewBox="0 0 858 693" fill="none" xmlns="http://www.w3.org/2000/svg">
<g filter="url(#filter0_d_234_2)">
<path fill-rule="evenodd" clip-rule="evenodd" d="M458.308 409.517H370.942L338.849 652H486.835L458.308 409.517ZM411.95 609.208C425.736 609.208 436.912 598.033 436.912 584.247C436.912 570.461 425.736 559.285 411.95 559.285C398.164 559.285 386.989 570.461 386.989 584.247C386.989 598.033 398.164 609.208 411.95 609.208Z" fill="#E5E5E5"/>
<rect x="9" y="3" width="813.033" height="508.146" rx="17" fill="#E5E5E5"/>
<rect x="30.3955" y="24.3955" width="770.242" height="449.308" fill="#525151"/>
<rect x="30.3955" y="24.3955" width="770.242" height="62.4038" fill="#2E2D2D"/>
<circle cx="67.8378" cy="54.7064" r="12.4808" fill="#FF0000"/>
<circle cx="110.629" cy="54.7064" r="12.4808" fill="#FFD600"/>
<circle cx="153.42" cy="54.7064" r="12.4808" fill="#14A607"/>
<rect x="80.3186" y="147.42" width="244.266" height="14.2637" rx="5" fill="#1D8976"/>
<rect x="80.3186" y="243.701" width="244.266" height="12.4808" rx="5" fill="#C0962A"/>
<rect x="80.3186" y="334.631" width="149.769" height="14.2637" rx="5" fill="#C0962A"/>
<rect x="192.645" y="209.824" width="244.266" height="14.2637" rx="5" fill="#1D8976"/>
<path d="M239.003 339.631C239.003 336.869 241.241 334.631 244.003 334.631H282.143C284.904 334.631 287.143 336.869 287.143 339.631V343.895C287.143 346.656 284.904 348.895 282.143 348.895H244.003C241.241 348.895 239.003 346.656 239.003 343.895V339.631Z" fill="#1D8976"/>
<rect x="80.3186" y="179.514" width="137.288" height="14.2637" rx="5" fill="#C0962A"/>
<rect x="80.3186" y="275.795" width="137.288" height="12.4808" rx="5" fill="#BE1B1B"/>
<rect x="239.003" y="275.795" width="137.288" height="12.4808" rx="5" fill="#C0962A"/>
<rect x="80.3186" y="209.824" width="92.7143" height="14.2637" rx="5" fill="#BE1B1B"/>
<rect x="239.003" y="179.514" width="137.288" height="14.2637" rx="5" fill="#BE1B1B"/>
<rect x="344.198" y="147.42" width="57.0549" height="14.2637" rx="5" fill="#C0962A"/>
<rect x="344.198" y="243.701" width="57.0549" height="12.4808" rx="5" fill="#BE1B1B"/>
<rect x="67.8381" y="304.321" width="58.8379" height="14.2637" rx="5" fill="#D15D1B"/>
<rect x="64.272" y="368.508" width="58.8379" height="14.2637" rx="5" fill="#D15D1B"/>
<rect x="69.6208" y="118.892" width="58.8379" height="14.2637" rx="5" fill="#D15D1B"/>
</g>
<defs>
<filter id="filter0_d_234_2" x="0" y="0" width="857.033" height="693" filterUnits="userSpaceOnUse" color-interpolation-filters="sRGB">
<feFlood flood-opacity="0" result="BackgroundImageFix"/>
<feColorMatrix in="SourceAlpha" type="matrix" values="0 0 0 0 0 0 0 0 0 0 0 0 0 0 0 0 0 0 127 0" result="hardAlpha"/>
<feOffset dx="13" dy="19"/>
<feGaussianBlur stdDeviation="11"/>
<feComposite in2="hardAlpha" operator="out"/>
<feColorMatrix type="matrix" values="0 0 0 0 0 0 0 0 0 0 0 0 0 0 0 0 0 0 0.25 0"/>
<feBlend mode="normal" in2="BackgroundImageFix" result="effect1_dropShadow_234_2"/>
<feBlend mode="normal" in="SourceGraphic" in2="effect1_dropShadow_234_2" result="shape"/>
</filter>
</defs>
</svg>
